<svg width="144" height="52" viewBox="0 0 144 52" fill="none" xmlns="http://www.w3.org/2000/svg">
<path d="M2.50977 36.9611V9.71436H11.6483V29.8381H23.8847V36.9611H2.50977ZM39.3332 36.9611V33.1855L38.7137 32.1735V25.0115C38.7137 23.9735 38.3909 23.1821 37.7456 22.6371C37.126 22.0922 36.1062 21.8197 34.6865 21.8197C33.7314 21.8197 32.7634 21.9754 31.7823 22.2868C30.8012 22.5723 29.9623 22.9744 29.2653 23.4934L26.4773 17.6938C27.7164 16.9153 29.2008 16.3184 30.9304 15.9033C32.6599 15.4881 34.351 15.2805 36.0031 15.2805C39.643 15.2805 42.4568 16.0979 44.4446 17.7327C46.4582 19.3675 47.465 21.9624 47.465 25.5175V36.9611H39.3332ZM33.3312 37.3504C31.6017 37.3504 30.156 37.0521 28.9943 36.4551C27.8326 35.8582 26.9549 35.0669 26.3611 34.0808C25.7674 33.0687 25.4705 31.953 25.4705 30.7333C25.4705 29.3579 25.819 28.1902 26.516 27.2301C27.213 26.27 28.2715 25.5434 29.6913 25.0504C31.137 24.5574 32.957 24.3108 35.1512 24.3108H39.5656V28.5536H36.5452C35.6158 28.5536 34.9318 28.7093 34.4929 29.0206C34.0799 29.3062 33.8733 29.7471 33.8733 30.3441C33.8733 30.837 34.0539 31.2524 34.4154 31.5896C34.8027 31.901 35.3191 32.0567 35.9644 32.0567C36.5582 32.0567 37.1003 31.901 37.5907 31.5896C38.1071 31.2524 38.4813 30.7333 38.7137 30.0327L39.8366 32.6406C39.5011 34.2234 38.7911 35.4042 37.7069 36.1827C36.6226 36.9611 35.1642 37.3504 33.3312 37.3504ZM85.6565 37.3504C83.2556 37.3504 81.1259 36.8833 79.2672 35.9491C77.4342 34.9891 75.9888 33.6785 74.9303 32.0178C73.8717 30.3571 73.3426 28.4499 73.3426 26.296C73.3426 24.1422 73.8717 22.2349 74.9303 20.5741C75.9888 18.9134 77.4342 17.6159 79.2672 16.6817C81.1259 15.7476 83.2556 15.2805 85.6565 15.2805C88.0573 15.2805 90.187 15.7476 92.0457 16.6817C93.9044 17.6159 95.3501 18.9134 96.3826 20.5741C97.4412 22.2349 97.9703 24.1422 97.9703 26.296C97.9703 28.4499 97.4412 30.3571 96.3826 32.0178C95.3501 33.6785 93.9044 34.9891 92.0457 35.9491C90.187 36.8833 88.0573 37.3504 85.6565 37.3504ZM85.6565 30.4998C86.3017 30.4998 86.8826 30.3441 87.399 30.0327C87.9154 29.7213 88.3283 29.2542 88.6381 28.6314C88.9479 27.9828 89.1028 27.2042 89.1028 26.296C89.1028 25.3618 88.9479 24.5963 88.6381 23.9995C88.3283 23.3767 87.9154 22.9096 87.399 22.5982C86.8826 22.2868 86.3017 22.1311 85.6565 22.1311C85.0112 22.1311 84.4303 22.2868 83.9139 22.5982C83.3975 22.9096 82.9846 23.3767 82.6748 23.9995C82.365 24.5963 82.2101 25.3618 82.2101 26.296C82.2101 27.2042 82.365 27.9828 82.6748 28.6314C82.9846 29.2542 83.3975 29.7213 83.9139 30.0327C84.4303 30.3441 85.0112 30.4998 85.6565 30.4998ZM109.538 37.3504C107.86 37.3504 106.337 37.0131 104.969 36.3384C103.627 35.6377 102.568 34.5609 101.794 33.1077C101.019 31.6286 100.632 29.7344 100.632 27.4248V15.6697H109.383V25.9067C109.383 27.4118 109.629 28.4626 110.119 29.0596C110.609 29.6565 111.281 29.9548 112.132 29.9548C112.649 29.9548 113.126 29.825 113.565 29.5656C114.03 29.28 114.404 28.826 114.688 28.2032C114.972 27.5545 115.114 26.7111 115.114 25.6732V15.6697H123.865V36.9611H115.54V30.8112L117.205 32.4849C116.456 34.1455 115.385 35.3783 113.991 36.1827C112.623 36.9611 111.139 37.3504 109.538 37.3504ZM137.97 37.3504C135.053 37.3504 132.781 36.6497 131.155 35.2485C129.528 33.8214 128.715 31.6416 128.715 28.7093V10.8821H137.467V28.6314C137.467 29.28 137.634 29.7861 137.97 30.1494C138.331 30.5128 138.77 30.6944 139.286 30.6944C140.035 30.6944 140.693 30.4998 141.261 30.1105L143.352 36.2216C142.681 36.6108 141.868 36.8964 140.913 37.0779C139.983 37.2595 139.002 37.3504 137.97 37.3504ZM125.811 23.2599V16.8374H141.803V23.2599H125.811Z" fill="#FF0000"/>
<path d="M51.4437 44.1135C50.2639 44.1135 49.097 43.9423 47.9435 43.5995C46.7637 43.2568 45.8198 42.8089 45.1119 42.2555L48.9661 36.0489C49.4117 36.3916 49.9099 36.6683 50.4605 36.8791C51.0111 37.0898 51.588 37.1953 52.1909 37.1953C52.8988 37.1953 53.4757 37.0241 53.9214 36.6814C54.367 36.3652 54.7866 35.8777 55.1798 35.2187L56.5563 32.9259L57.2249 32.0562L67.4894 14.4248H76.1808L62.9667 36.4838C61.7869 38.4604 60.6334 40.0021 59.5059 41.109C58.3784 42.2159 57.1592 42.9935 55.8484 43.4414C54.5636 43.8893 53.0955 44.1135 51.4437 44.1135ZM54.5506 37.0372L49.674 14.4248H58.5227L61.7082 31.2655L54.5506 37.0372Z" fill="#FF0000"/>
<path d="M72.455 49.2632V49.0297L73.2778 48.8351V42.2764L72.455 42.0866V41.8531H75.4705C75.9802 41.8531 76.4304 41.9391 76.8209 42.1109C77.2115 42.2797 77.5164 42.5278 77.7358 42.8554C77.9551 43.1798 78.0649 43.5788 78.0649 44.0523C78.0649 44.714 77.8196 45.22 77.3292 45.5703C76.8388 45.9206 76.169 46.0958 75.3204 46.0958H74.3669V48.8351L75.4705 49.0297V49.2632H72.455ZM74.3669 45.7065H75.001C75.3882 45.7065 75.6965 45.6627 75.9255 45.5752C76.1578 45.4842 76.3433 45.3596 76.4821 45.2005C76.6273 45.0351 76.7275 44.8469 76.7822 44.6361C76.8403 44.422 76.8693 44.1967 76.8693 43.9598C76.8693 43.5609 76.7983 43.2285 76.6564 42.9624C76.5145 42.6963 76.3142 42.5066 76.0562 42.3931C75.8592 42.2958 75.5625 42.2472 75.1655 42.2472H74.3669V45.7065ZM78.7795 49.2632V49.0297L79.6023 48.8351V42.2764L78.7795 42.0866V41.8531H81.7466C82.247 41.8531 82.6889 41.9343 83.0728 42.0963C83.4601 42.2554 83.762 42.492 83.978 42.8067C84.1976 43.1181 84.3071 43.5025 84.3071 43.9598C84.3071 44.4366 84.1686 44.8292 83.8909 45.1373C83.6168 45.4453 83.2295 45.6612 82.7292 45.7844L84.7476 48.8351L85.8076 49.0297V49.2632H83.6585L81.5385 45.9109H80.6914V48.8351L81.7805 49.0297V49.2632H78.7795ZM80.6914 45.5168H81.2529C81.6468 45.5168 81.9565 45.4697 82.1822 45.3757C82.4115 45.2817 82.597 45.1552 82.7389 44.9962C82.881 44.8371 82.9809 44.6605 83.039 44.4658C83.1004 44.2679 83.1309 44.0669 83.1309 43.8625C83.1309 43.4766 83.0535 43.1585 82.8986 42.9089C82.7437 42.6592 82.5292 42.4792 82.2548 42.3688C82.1453 42.3235 82.0243 42.2925 81.8918 42.2764C81.7596 42.2569 81.5935 42.2472 81.3932 42.2472H80.6914V45.5168ZM89.3238 49.3654C88.8138 49.3654 88.3443 49.2696 87.9153 49.0783C87.4893 48.8837 87.1181 48.6146 86.802 48.2707C86.4889 47.9237 86.2454 47.5198 86.0711 47.0591C85.8999 46.5954 85.8146 46.0943 85.8146 45.5557C85.8146 45.0141 85.8999 44.513 86.0711 44.0523C86.2454 43.5916 86.4889 43.1896 86.802 42.8456C87.1181 42.4987 87.4893 42.2292 87.9153 42.038C88.3443 41.8467 88.8138 41.7509 89.3238 41.7509C89.8336 41.7509 90.3031 41.8467 90.7324 42.038C91.1613 42.2292 91.5325 42.4987 91.8456 42.8456C92.1618 43.1896 92.4071 43.5916 92.5814 44.0523C92.7556 44.513 92.8428 45.0141 92.8428 45.5557C92.8428 46.0943 92.7556 46.5954 92.5814 47.0591C92.4071 47.5198 92.1618 47.9237 91.8456 48.2707C91.5325 48.6146 91.1613 48.8837 90.7324 49.0783C90.3031 49.2696 89.8336 49.3654 89.3238 49.3654ZM89.3238 48.908C89.6109 48.908 89.8708 48.856 90.1031 48.7523C90.3385 48.6486 90.5451 48.4993 90.7227 48.3047C90.9033 48.1068 91.0549 47.8702 91.1777 47.5944C91.3002 47.3185 91.3922 47.0071 91.4536 46.6602C91.5147 46.3132 91.5455 45.9367 91.5455 45.5314C91.5455 45.1324 91.5147 44.7626 91.4536 44.422C91.3922 44.0781 91.3017 43.7701 91.1825 43.4976C91.063 43.2251 90.913 42.9931 90.7324 42.8018C90.5548 42.6072 90.3482 42.4597 90.1128 42.3591C89.8805 42.2554 89.6206 42.2034 89.3335 42.2034C89.0461 42.2034 88.7847 42.2554 88.5494 42.3591C88.3137 42.4597 88.1056 42.6072 87.925 42.8018C87.7474 42.9965 87.5973 43.2315 87.4748 43.5073C87.3553 43.7798 87.2649 44.0878 87.2038 44.4318C87.1423 44.7757 87.1118 45.1485 87.1118 45.5508C87.1118 45.9532 87.1423 46.326 87.2038 46.6699C87.2649 47.0138 87.3553 47.3234 87.4748 47.5992C87.5973 47.875 87.7474 48.1101 87.925 48.3047C88.1022 48.4993 88.3074 48.6486 88.5397 48.7523C88.7751 48.856 89.0364 48.908 89.3238 48.908ZM93.6977 49.2632V49.0297L94.5205 48.8351V42.2764L93.6977 42.0866V41.8531H96.7132C97.223 41.8531 97.6731 41.9391 98.0637 42.1109C98.4539 42.2797 98.7589 42.5278 98.9785 42.8554C99.1978 43.1798 99.3076 43.5788 99.3076 44.0523C99.3076 44.714 99.0623 45.22 98.5719 45.5703C98.0812 45.9206 97.4117 46.0958 96.5632 46.0958H95.6096V48.8351L96.7132 49.0297V49.2632H93.6977ZM95.6096 45.7065H96.2437C96.6309 45.7065 96.9389 45.6627 97.1682 45.5752C97.4005 45.4842 97.586 45.3596 97.7248 45.2005C97.87 45.0351 97.9699 44.8469 98.0249 44.6361C98.083 44.422 98.1121 44.1967 98.1121 43.9598C98.1121 43.5609 98.041 43.2285 97.8991 42.9624C97.7569 42.6963 97.5569 42.5066 97.2989 42.3931C97.102 42.2958 96.8052 42.2472 96.4083 42.2472H95.6096V45.7065ZM98.8908 49.2632V49.0297C99.2232 48.9746 99.4731 48.908 99.641 48.8302C99.8089 48.749 99.9348 48.6404 100.019 48.5042C100.102 48.3646 100.185 48.1816 100.265 47.9544L102.119 42.8018L101.848 42.1839L102.855 41.6584L105.411 48.4361C105.465 48.5854 105.525 48.6988 105.59 48.7767C105.658 48.8545 105.753 48.9114 105.875 48.947C105.998 48.9825 106.171 49.0102 106.393 49.0297V49.2632H103.228V49.0297C103.541 49.0102 103.775 48.9874 103.93 48.9616C104.084 48.9324 104.173 48.8691 104.196 48.7718C104.218 48.6711 104.189 48.5075 104.109 48.2804L102.366 43.4781H102.337L100.696 48.0663C100.625 48.2643 100.606 48.4264 100.638 48.5529C100.67 48.676 100.765 48.7751 100.924 48.8497C101.082 48.9211 101.312 48.981 101.616 49.0297V49.2632H98.8908ZM101.059 46.6164V46.2077H103.712V46.6164H101.059ZM110.009 49.3654C109.321 49.3654 108.713 49.2082 108.184 48.8934C107.658 48.5757 107.245 48.1359 106.945 47.5749C106.648 47.0138 106.499 46.3698 106.499 45.6433C106.499 45.0822 106.59 44.5665 106.771 44.0961C106.951 43.6226 107.204 43.2105 107.53 42.8602C107.856 42.5066 108.24 42.2341 108.682 42.0428C109.124 41.8482 109.607 41.7509 110.13 41.7509C110.507 41.7509 110.861 41.8029 111.19 41.9066C111.519 42.0103 111.791 42.1562 112.008 42.3445H112.042L112.545 41.8531H112.768V44.0863H112.521C112.314 43.6192 112.105 43.2495 111.892 42.977C111.679 42.7012 111.441 42.5035 111.18 42.3834C110.922 42.2633 110.615 42.2034 110.26 42.2034C109.454 42.2034 108.844 42.4938 108.431 43.0743C108.018 43.6518 107.811 44.5063 107.811 45.6384C107.811 46.7347 108.005 47.5539 108.392 48.0955C108.779 48.634 109.366 48.9032 110.154 48.9032C110.46 48.9032 110.733 48.8545 110.972 48.7572C111.211 48.6566 111.388 48.5091 111.504 48.3144C111.54 48.2691 111.562 48.2156 111.572 48.1539C111.582 48.0891 111.587 47.9754 111.587 47.8133V45.9693L110.725 45.7844V45.5508H113.532V45.7844L112.681 45.9693V48.4799C112.5 48.6517 112.264 48.8043 111.974 48.9372C111.683 49.0701 111.367 49.1756 111.025 49.2535C110.683 49.328 110.344 49.3654 110.009 49.3654ZM113.421 49.2632V49.0297C113.754 48.9746 114.004 48.908 114.171 48.8302C114.339 48.749 114.465 48.6404 114.549 48.5042C114.633 48.3646 114.715 48.1816 114.796 47.9544L116.65 42.8018L116.379 42.1839L117.385 41.6584L119.941 48.4361C119.996 48.5854 120.056 48.6988 120.12 48.7767C120.188 48.8545 120.283 48.9114 120.406 48.947C120.529 48.9825 120.701 49.0102 120.924 49.0297V49.2632H117.758V49.0297C118.071 49.0102 118.305 48.9874 118.46 48.9616C118.615 48.9324 118.704 48.8691 118.726 48.7718C118.749 48.6711 118.72 48.5075 118.639 48.2804L116.896 43.4781H116.867L115.227 48.0663C115.156 48.2643 115.136 48.4264 115.169 48.5529C115.201 48.676 115.296 48.7751 115.454 48.8497C115.612 48.9211 115.843 48.981 116.146 49.0297V49.2632H113.421ZM115.59 46.6164V46.2077H118.242V46.6164H115.59ZM127.247 49.4432L122.523 42.9137V48.8351L123.38 49.0297V49.2632H121.245V49.0297L122.107 48.8351V42.2715L121.245 42.0866V41.8531H123.269L127.175 47.1857V42.2715L126.323 42.0866V41.8531H128.457V42.0866L127.591 42.2715V49.4432H127.247ZM129.263 49.2632V49.0199L130.086 48.8351V42.2715L129.263 42.0866V41.8531H131.678C132.194 41.8531 132.638 41.8759 133.009 41.9212C133.384 41.9665 133.709 42.0413 133.987 42.145C134.268 42.2456 134.521 42.3819 134.747 42.5537C135.186 42.8812 135.525 43.3078 135.763 43.8333C136.002 44.3555 136.121 44.9344 136.121 45.5703C136.121 46.2256 135.994 46.8289 135.739 47.3803C135.484 47.9286 135.132 48.3664 134.684 48.694C134.4 48.8983 134.09 49.0443 133.754 49.1318C133.419 49.2194 133.009 49.2632 132.525 49.2632H129.263ZM132.167 48.8788C132.625 48.8788 133.001 48.8205 133.295 48.7037C133.588 48.5836 133.848 48.3874 134.074 48.115C134.323 47.8036 134.511 47.4225 134.64 46.9716C134.773 46.5176 134.839 46.0164 134.839 45.4681C134.839 44.9199 134.773 44.4351 134.64 44.0133C134.508 43.5916 134.313 43.2382 134.055 42.9527C133.819 42.703 133.538 42.5245 133.212 42.4175C132.887 42.3071 132.464 42.252 131.944 42.252H131.175V48.2998C131.175 48.5173 131.247 48.6681 131.392 48.7523C131.538 48.8366 131.796 48.8788 132.167 48.8788ZM136.129 49.2632V49.0297C136.461 48.9746 136.712 48.908 136.88 48.8302C137.047 48.749 137.173 48.6404 137.257 48.5042C137.341 48.3646 137.423 48.1816 137.504 47.9544L139.358 42.8018L139.087 42.1839L140.094 41.6584L142.649 48.4361C142.704 48.5854 142.764 48.6988 142.828 48.7767C142.896 48.8545 142.991 48.9114 143.114 48.947C143.236 48.9825 143.409 49.0102 143.632 49.0297V49.2632H140.466V49.0297C140.779 49.0102 141.013 48.9874 141.168 48.9616C141.323 48.9324 141.412 48.8691 141.434 48.7718C141.457 48.6711 141.428 48.5075 141.347 48.2804L139.605 43.4781H139.576L137.935 48.0663C137.864 48.2643 137.844 48.4264 137.877 48.5529C137.909 48.676 138.004 48.7751 138.162 48.8497C138.32 48.9211 138.551 48.981 138.854 49.0297V49.2632H136.129ZM138.298 46.6164V46.2077H140.95V46.6164H138.298Z" fill="#FF0000"/>
</svg>
